<svg width="1153" height="1717" xmlns="http://www.w3.org/2000/svg" xmlns:xlink="http://www.w3.org/1999/xlink" xml:space="preserve" overflow="hidden"><defs><filter id="fx0" x="-10%" y="-10%" width="120%" height="120%" filterUnits="userSpaceOnUse" primitiveUnits="userSpaceOnUse"><feComponentTransfer color-interpolation-filters="sRGB"><feFuncR type="discrete" tableValues="0 0"/><feFuncG type="discrete" tableValues="0 0"/><feFuncB type="discrete" tableValues="0 0"/><feFuncA type="linear" slope="0.2" intercept="0"/></feComponentTransfer><feGaussianBlur stdDeviation="4.58732 4.58601"/></filter><clipPath id="clip1"><path d="M2903.43 295.5C2868.12 295.5 2839.5 324.124 2839.5 359.432L2839.5 1881.57C2839.5 1916.88 2868.12 1945.5 2903.43 1945.5L3861.57 1945.5C3896.88 1945.5 3925.5 1916.88 3925.5 1881.57L3925.5 359.432C3925.5 324.124 3896.88 295.5 3861.57 295.5ZM2836 292 3989 292 3989 2009 2836 2009Z" fill-rule="evenodd" clip-rule="evenodd"/></clipPath><linearGradient x1="4140.24" y1="621.767" x2="2624.76" y2="1619.23" gradientUnits="userSpaceOnUse" spreadMethod="reflect" id="fill2"><stop offset="0" stop-color="#F4EDE3"/><stop offset="0.5" stop-color="#F4EDE3"/><stop offset="1" stop-color="#DAC3A2"/></linearGradient></defs><g transform="translate(-2836 -292)"><g clip-path="url(#clip1)"><g filter="url(#fx0)" transform="matrix(1.99826 0 0 1.99883 2839 295)"><g transform="matrix(1 0 0 1 0 -2.84217e-14)"><path d="M16.4689 48.4489C16.4689 30.7842 30.793 16.4642 48.4628 16.4642L527.947 16.4642C545.617 16.4642 559.941 30.7842 559.941 48.4489L559.941 809.961C559.941 827.625 545.617 841.945 527.947 841.945L48.4628 841.945C30.793 841.945 16.4689 827.625 16.4689 809.961Z" stroke="#D9D9D9" stroke-width="3" stroke-miterlimit="8" fill="#FF0000" fill-rule="evenodd"/></g></g></g><path d="M2839.5 359.432C2839.5 324.124 2868.12 295.5 2903.43 295.5L3861.57 295.5C3896.88 295.5 3925.5 324.124 3925.5 359.432L3925.5 1881.57C3925.5 1916.88 3896.88 1945.5 3861.57 1945.5L2903.43 1945.5C2868.12 1945.5 2839.5 1916.88 2839.5 1881.57Z" stroke="#D9D9D9" stroke-width="6.875" stroke-miterlimit="8" fill="url(#fill2)" fill-rule="evenodd"/></g></svg>